<?xml version="1.0" encoding="iso-8859-1"?>
<!-- Generator: Adobe Illustrator 19.0.0, SVG Export Plug-In . SVG Version: 6.00 Build 0)  -->
<svg version="1.1" id="Capa_1" xmlns="http://www.w3.org/2000/svg" xmlns:xlink="http://www.w3.org/1999/xlink" x="0px" y="0px"
	 viewBox="0 0 512 512" style="enable-background:new 0 0 512 512;" xml:space="preserve">
<g>
	<path style="fill:#F0C419;" d="M450.207,467.862v26.483c-0.029,9.739-7.916,17.627-17.655,17.655H97.103
		c-9.739-0.029-17.627-7.916-17.655-17.655V17.655C79.477,7.916,87.365,0.029,97.103,0h335.448
		c9.739,0.029,17.627,7.916,17.655,17.655V467.862z"/>
	<path style="fill:#4482C3;" d="M344.276,256c0.032,27.579-14.279,53.191-37.782,67.619c1.634-4.713,2.47-9.666,2.472-14.654
		c0-24.377-19.761-44.138-44.138-44.138s-44.138,19.761-44.138,44.138c0.002,4.988,0.837,9.941,2.472,14.654
		c-32.577-20.075-46.212-60.523-32.438-96.223c13.774-35.701,51.043-56.508,88.661-49.5S344.28,217.734,344.276,256z"/>
	<g>
		<path style="fill:#E57E25;" d="M397.241,220.69h61.793c9.751,0,17.655,7.904,17.655,17.655v35.31
			c0,9.751-7.905,17.655-17.655,17.655h-61.793c-9.751,0-17.655-7.904-17.655-17.655v-35.31
			C379.586,228.594,387.491,220.69,397.241,220.69z"/>
		<path style="fill:#E57E25;" d="M397.241,44.138h61.793c9.751,0,17.655,7.904,17.655,17.655v35.31
			c0,9.751-7.905,17.655-17.655,17.655h-61.793c-9.751,0-17.655-7.904-17.655-17.655v-35.31
			C379.586,52.042,387.491,44.138,397.241,44.138z"/>
		<path style="fill:#E57E25;" d="M397.241,397.241h61.793c9.751,0,17.655,7.905,17.655,17.655v35.31
			c0,9.751-7.905,17.655-17.655,17.655h-61.793c-9.751,0-17.655-7.904-17.655-17.655v-35.31
			C379.586,405.146,387.491,397.241,397.241,397.241z"/>
	</g>
	<g>
		<circle style="fill:#E6E7E8;" cx="264.828" cy="238.345" r="26.483"/>
		<path style="fill:#E6E7E8;" d="M308.966,308.966c-0.002,4.988-0.837,9.941-2.472,14.654c-25.538,15.772-57.794,15.772-83.332,0
			c-1.635-4.713-2.47-9.666-2.472-14.654c0-24.377,19.761-44.138,44.138-44.138S308.966,284.589,308.966,308.966z"/>
	</g>
	<g>
		<path style="fill:#E57E25;" d="M308.966,379.586H220.69c-4.875,0-8.828-3.952-8.828-8.828s3.952-8.828,8.828-8.828h88.276
			c4.875,0,8.828,3.952,8.828,8.828S313.841,379.586,308.966,379.586z"/>
		<path style="fill:#E57E25;" d="M308.966,414.897H220.69c-4.875,0-8.828-3.952-8.828-8.828s3.952-8.828,8.828-8.828h88.276
			c4.875,0,8.828,3.952,8.828,8.828S313.841,414.897,308.966,414.897z"/>
	</g>
	<g>
		<path style="fill:#A5A5A4;" d="M123.586,44.138c0,4.875-3.952,8.828-8.828,8.828s-8.828-3.952-8.828-8.828
			c0-2.207-9.357-8.828-26.483-8.828s-26.483,6.621-26.483,8.828c0,2.207,9.357,8.828,26.483,8.828v17.655
			c-25.159,0-44.138-11.388-44.138-26.483S54.29,17.655,79.448,17.655S123.586,29.043,123.586,44.138z"/>
		<path style="fill:#A5A5A4;" d="M123.586,105.931c0,4.875-3.952,8.828-8.828,8.828s-8.828-3.952-8.828-8.828
			c0-2.207-9.357-8.828-26.483-8.828s-26.483,6.621-26.483,8.828c0,2.207,9.357,8.828,26.483,8.828v17.655
			c-25.159,0-44.138-11.388-44.138-26.483S54.29,79.448,79.448,79.448S123.586,90.836,123.586,105.931z"/>
		<path style="fill:#A5A5A4;" d="M123.586,167.724c0,4.875-3.952,8.828-8.828,8.828s-8.828-3.952-8.828-8.828
			c0-2.207-9.357-8.828-26.483-8.828s-26.483,6.621-26.483,8.828s9.357,8.828,26.483,8.828v17.655
			c-25.159,0-44.138-11.388-44.138-26.483s18.979-26.483,44.138-26.483S123.586,152.629,123.586,167.724z"/>
		<path style="fill:#A5A5A4;" d="M123.586,229.517c0,4.875-3.952,8.828-8.828,8.828s-8.828-3.952-8.828-8.828
			c0-2.207-9.357-8.828-26.483-8.828s-26.483,6.621-26.483,8.828s9.357,8.828,26.483,8.828V256
			c-25.159,0-44.138-11.388-44.138-26.483s18.979-26.483,44.138-26.483S123.586,214.422,123.586,229.517z"/>
		<path style="fill:#A5A5A4;" d="M123.586,291.31c0,4.875-3.952,8.828-8.828,8.828s-8.828-3.952-8.828-8.828
			c0-2.207-9.357-8.828-26.483-8.828s-26.483,6.621-26.483,8.828c0,2.207,9.357,8.828,26.483,8.828v17.655
			c-25.159,0-44.138-11.388-44.138-26.483c0-15.095,18.979-26.483,44.138-26.483S123.586,276.215,123.586,291.31z"/>
		<path style="fill:#A5A5A4;" d="M123.586,353.103c0,4.875-3.952,8.828-8.828,8.828s-8.828-3.952-8.828-8.828
			c0-2.207-9.357-8.828-26.483-8.828s-26.483,6.621-26.483,8.828c0,2.207,9.357,8.828,26.483,8.828v17.655
			c-25.159,0-44.138-11.388-44.138-26.483c0-15.095,18.979-26.483,44.138-26.483S123.586,338.008,123.586,353.103z"/>
		<path style="fill:#A5A5A4;" d="M123.586,414.897c0,4.875-3.952,8.828-8.828,8.828s-8.828-3.952-8.828-8.828
			c0-2.207-9.357-8.828-26.483-8.828s-26.483,6.621-26.483,8.828c0,2.207,9.357,8.828,26.483,8.828v17.655
			c-25.159,0-44.138-11.388-44.138-26.483s18.979-26.483,44.138-26.483S123.586,399.801,123.586,414.897z"/>
		<path style="fill:#A5A5A4;" d="M123.586,476.69c0,4.875-3.952,8.828-8.828,8.828s-8.828-3.952-8.828-8.828
			c0-2.207-9.357-8.828-26.483-8.828s-26.483,6.621-26.483,8.828c0,2.207,9.357,8.828,26.483,8.828v8.828
			c-0.014,2.969,0.747,5.89,2.207,8.474c-0.708,0.253-1.456,0.373-2.207,0.353c-25.159,0-44.138-11.388-44.138-26.483
			c0-15.095,18.979-26.483,44.138-26.483S123.586,461.594,123.586,476.69z"/>
	</g>
</g>
<g>
</g>
<g>
</g>
<g>
</g>
<g>
</g>
<g>
</g>
<g>
</g>
<g>
</g>
<g>
</g>
<g>
</g>
<g>
</g>
<g>
</g>
<g>
</g>
<g>
</g>
<g>
</g>
<g>
</g>
</svg>
