<?xml version="1.0" encoding="iso-8859-1"?>
<!-- Generator: Adobe Illustrator 19.0.0, SVG Export Plug-In . SVG Version: 6.00 Build 0)  -->
<svg version="1.1" id="Layer_1" xmlns="http://www.w3.org/2000/svg" xmlns:xlink="http://www.w3.org/1999/xlink" x="0px" y="0px"
	 viewBox="0 0 512.001 512.001" style="enable-background:new 0 0 512.001 512.001;" xml:space="preserve">
<path style="fill:#57A4FF;" d="M488.727,512c-5.956,0-11.913-2.273-16.455-6.816l-80.634-80.632c-9.089-9.089-9.089-23.824,0-32.914
	c9.087-9.087,23.824-9.087,32.912,0l80.634,80.634c9.089,9.087,9.089,23.824,0,32.912C500.64,509.727,494.684,512,488.727,512z"/>
<path style="fill:#A78966;" d="M302.545,0.001h-93.091h-93.091c-12.853,0-23.273,10.418-23.273,23.273v93.091
	c0,12.851,10.42,23.273,23.273,23.273h93.091h93.091c12.853,0,23.273-10.422,23.273-23.273V23.274
	C325.818,10.418,315.398,0.001,302.545,0.001z M279.273,93.092h-69.818h-69.818V46.547h69.818h69.818V93.092z"/>
<path style="fill:#806749;" d="M139.636,93.092V46.547h69.818V0.001h-93.091c-12.853,0-23.273,10.418-23.273,23.273v93.091
	c0,12.851,10.42,23.273,23.273,23.273h93.091V93.092H139.636z"/>
<path style="fill:#FFB655;" d="M395.636,93.092H209.455H23.273C10.42,93.092,0,103.511,0,116.365v248.241
	c0,12.853,10.42,23.273,23.273,23.273h186.182h6.616c12.853,0,23.273-10.42,23.273-23.273c0-5.156-1.697-9.905-4.535-13.762
	l142.091-104.355c4.236,5.758,11.041,9.511,18.738,9.511c12.853,0,23.273-10.42,23.273-23.273V116.365
	C418.909,103.509,408.489,93.092,395.636,93.092z"/>
<path style="fill:#EE8700;" d="M23.273,93.092C10.42,93.092,0,103.511,0,116.365v248.241c0,12.853,10.42,23.273,23.273,23.273
	h186.182V93.092H23.273z"/>
<circle style="fill:#BDFDFF;" cx="325.818" cy="325.818" r="116.364"/>
<path style="fill:#9BC9FF;" d="M325.81,465.454c-76.995,0-139.636-62.641-139.636-139.636s62.641-139.636,139.636-139.636
	s139.636,62.641,139.636,139.636S402.806,465.454,325.81,465.454z M325.81,232.727c-51.33,0-93.091,41.761-93.091,93.091
	s41.761,93.091,93.091,93.091s93.091-41.761,93.091-93.091S377.141,232.727,325.81,232.727z"/>
<g>
</g>
<g>
</g>
<g>
</g>
<g>
</g>
<g>
</g>
<g>
</g>
<g>
</g>
<g>
</g>
<g>
</g>
<g>
</g>
<g>
</g>
<g>
</g>
<g>
</g>
<g>
</g>
<g>
</g>
</svg>
